<mxfile host="65bd71144e">
    <diagram id="aURCIgeWNbBNqDlR2eLN" name="Page-1">
        <mxGraphModel dx="1607" dy="1827" grid="1" gridSize="10" guides="1" tooltips="1" connect="1" arrows="1" fold="1" page="1" pageScale="1" pageWidth="827" pageHeight="1169" math="0" shadow="0">
            <root>
                <mxCell id="0"/>
                <mxCell id="1" parent="0"/>
                <mxCell id="2" value="&lt;div style=&quot;color: rgb(204, 204, 204); background-color: rgb(31, 31, 31); font-family: &amp;quot;Droid Sans Mono&amp;quot;, &amp;quot;monospace&amp;quot;, monospace; line-height: 19px; white-space: pre;&quot;&gt;&lt;span style=&quot;color: #4ec9b0;&quot;&gt;Message&lt;/span&gt;&lt;/div&gt;" style="swimlane;childLayout=stackLayout;horizontal=1;startSize=50;horizontalStack=0;rounded=1;fontSize=14;fontStyle=0;strokeWidth=2;resizeParent=0;resizeLast=1;shadow=0;dashed=0;align=center;arcSize=4;whiteSpace=wrap;html=1;" parent="1" vertex="1">
                    <mxGeometry x="-30" y="-40" width="160" height="140" as="geometry"/>
                </mxCell>
                <mxCell id="3" value="&lt;div style=&quot;color: rgb(204, 204, 204); background-color: rgb(31, 31, 31); font-family: &amp;quot;Droid Sans Mono&amp;quot;, &amp;quot;monospace&amp;quot;, monospace; font-size: 14px; line-height: 19px; white-space-collapse: preserve;&quot;&gt;&lt;span style=&quot;color: #9cdcfe;&quot;&gt;*id&lt;/span&gt;&lt;/div&gt;&lt;div style=&quot;color: rgb(204, 204, 204); background-color: rgb(31, 31, 31); font-family: &amp;quot;Droid Sans Mono&amp;quot;, &amp;quot;monospace&amp;quot;, monospace; font-size: 14px; line-height: 19px; white-space-collapse: preserve;&quot;&gt;&lt;span style=&quot;color: #9cdcfe;&quot;&gt;*sender(id_user)&lt;/span&gt;&lt;/div&gt;&lt;div style=&quot;color: rgb(204, 204, 204); background-color: rgb(31, 31, 31); font-family: &amp;quot;Droid Sans Mono&amp;quot;, &amp;quot;monospace&amp;quot;, monospace; font-size: 14px; line-height: 19px; white-space-collapse: preserve;&quot;&gt;&lt;span style=&quot;color: #9cdcfe;&quot;&gt;body&lt;/span&gt;&lt;/div&gt;&lt;div style=&quot;color: rgb(204, 204, 204); background-color: rgb(31, 31, 31); font-family: &amp;quot;Droid Sans Mono&amp;quot;, &amp;quot;monospace&amp;quot;, monospace; font-size: 14px; line-height: 19px; white-space-collapse: preserve;&quot;&gt;&lt;span style=&quot;color: #9cdcfe;&quot;&gt;*id_conversation&lt;/span&gt;&lt;/div&gt;" style="align=left;strokeColor=none;fillColor=none;spacingLeft=4;fontSize=12;verticalAlign=top;resizable=0;rotatable=0;part=1;html=1;" parent="2" vertex="1">
                    <mxGeometry y="50" width="160" height="90" as="geometry"/>
                </mxCell>
                <mxCell id="4" value="&lt;div style=&quot;color: rgb(204, 204, 204); background-color: rgb(31, 31, 31); font-family: &amp;quot;Droid Sans Mono&amp;quot;, &amp;quot;monospace&amp;quot;, monospace; line-height: 19px; white-space: pre;&quot;&gt;&lt;span style=&quot;color: #4fc1ff;&quot;&gt;User&lt;/span&gt;&lt;/div&gt;" style="swimlane;childLayout=stackLayout;horizontal=1;startSize=50;horizontalStack=0;rounded=1;fontSize=14;fontStyle=0;strokeWidth=2;resizeParent=0;resizeLast=1;shadow=0;dashed=0;align=center;arcSize=4;whiteSpace=wrap;html=1;" parent="1" vertex="1">
                    <mxGeometry x="-30" y="180" width="160" height="270" as="geometry"/>
                </mxCell>
                <mxCell id="5" value="&lt;div style=&quot;color: rgb(204, 204, 204); background-color: rgb(31, 31, 31); font-family: &amp;quot;Droid Sans Mono&amp;quot;, &amp;quot;monospace&amp;quot;, monospace; font-size: 14px; line-height: 19px; white-space-collapse: preserve;&quot;&gt;&lt;span style=&quot;color: #9cdcfe;&quot;&gt;*id&lt;/span&gt;&lt;/div&gt;&lt;div style=&quot;color: rgb(204, 204, 204); background-color: rgb(31, 31, 31); font-family: &amp;quot;Droid Sans Mono&amp;quot;, &amp;quot;monospace&amp;quot;, monospace; font-size: 14px; line-height: 19px; white-space-collapse: preserve;&quot;&gt;&lt;div style=&quot;color: rgb(204, 204, 204); line-height: 19px;&quot;&gt;&lt;span style=&quot;color: #9cdcfe;&quot;&gt;firstName&lt;/span&gt;&lt;/div&gt;&lt;div style=&quot;color: rgb(204, 204, 204); line-height: 19px;&quot;&gt;&lt;div style=&quot;color: rgb(204, 204, 204); line-height: 19px;&quot;&gt;&lt;span style=&quot;color: #9cdcfe;&quot;&gt;lastName&lt;/span&gt;&lt;/div&gt;&lt;div style=&quot;color: rgb(204, 204, 204); line-height: 19px;&quot;&gt;&lt;div style=&quot;color: rgb(204, 204, 204); line-height: 19px;&quot;&gt;&lt;span style=&quot;color: #9cdcfe;&quot;&gt;displayName&lt;/span&gt;&lt;/div&gt;&lt;div style=&quot;color: rgb(204, 204, 204); line-height: 19px;&quot;&gt;&lt;div style=&quot;color: rgb(204, 204, 204); line-height: 19px;&quot;&gt;&lt;span style=&quot;color: #9cdcfe;&quot;&gt;password&lt;/span&gt;&lt;/div&gt;&lt;div style=&quot;color: rgb(204, 204, 204); line-height: 19px;&quot;&gt;&lt;div style=&quot;color: rgb(204, 204, 204); line-height: 19px;&quot;&gt;&lt;span style=&quot;color: #9cdcfe;&quot;&gt;email&lt;/span&gt;&lt;/div&gt;&lt;div style=&quot;color: rgb(204, 204, 204); line-height: 19px;&quot;&gt;&lt;div style=&quot;color: rgb(204, 204, 204); line-height: 19px;&quot;&gt;&lt;span style=&quot;color: #9cdcfe;&quot;&gt;avatar&lt;/span&gt;&lt;/div&gt;&lt;div style=&quot;color: rgb(204, 204, 204); line-height: 19px;&quot;&gt;&lt;div style=&quot;color: rgb(204, 204, 204); line-height: 19px;&quot;&gt;&lt;span style=&quot;color: #9cdcfe;&quot;&gt;role&lt;/span&gt;&lt;/div&gt;&lt;div style=&quot;color: rgb(204, 204, 204); line-height: 19px;&quot;&gt;&lt;div style=&quot;color: rgb(204, 204, 204); line-height: 19px;&quot;&gt;&lt;span style=&quot;color: #9cdcfe;&quot;&gt;balance&lt;/span&gt;&lt;/div&gt;&lt;div style=&quot;color: rgb(204, 204, 204); line-height: 19px;&quot;&gt;&lt;div style=&quot;color: rgb(204, 204, 204); line-height: 19px;&quot;&gt;&lt;span style=&quot;color: #9cdcfe;&quot;&gt;accessToken&lt;/span&gt;&lt;/div&gt;&lt;div style=&quot;color: rgb(204, 204, 204); line-height: 19px;&quot;&gt;&lt;span style=&quot;color: #9cdcfe;&quot;&gt;rating&lt;/span&gt;&lt;/div&gt;&lt;/div&gt;&lt;/div&gt;&lt;/div&gt;&lt;/div&gt;&lt;/div&gt;&lt;/div&gt;&lt;/div&gt;&lt;/div&gt;&lt;/div&gt;" style="align=left;strokeColor=none;fillColor=none;spacingLeft=4;fontSize=12;verticalAlign=top;resizable=0;rotatable=0;part=1;html=1;" parent="4" vertex="1">
                    <mxGeometry y="50" width="160" height="220" as="geometry"/>
                </mxCell>
                <mxCell id="6" value="&lt;div style=&quot;color: rgb(204, 204, 204); background-color: rgb(31, 31, 31); font-family: &amp;quot;Droid Sans Mono&amp;quot;, &amp;quot;monospace&amp;quot;, monospace; line-height: 19px; white-space: pre;&quot;&gt;&lt;span style=&quot;color: #4ec9b0;&quot;&gt;Conversation&lt;/span&gt;&lt;/div&gt;" style="swimlane;childLayout=stackLayout;horizontal=1;startSize=50;horizontalStack=0;rounded=1;fontSize=14;fontStyle=0;strokeWidth=2;resizeParent=0;resizeLast=1;shadow=0;dashed=0;align=center;arcSize=4;whiteSpace=wrap;html=1;" parent="1" vertex="1">
                    <mxGeometry x="230" y="-40" width="230" height="200" as="geometry"/>
                </mxCell>
                <mxCell id="7" value="&lt;div style=&quot;background-color: rgb(31, 31, 31); font-family: &amp;quot;Droid Sans Mono&amp;quot;, &amp;quot;monospace&amp;quot;, monospace; font-size: 14px; line-height: 19px; white-space-collapse: preserve; color: rgb(204, 204, 204);&quot;&gt;&lt;font color=&quot;#9cdcfe&quot;&gt;*id&lt;/font&gt;&lt;/div&gt;&lt;div style=&quot;background-color: rgb(31, 31, 31); font-family: &amp;quot;Droid Sans Mono&amp;quot;, &amp;quot;monospace&amp;quot;, monospace; font-size: 14px; line-height: 19px; white-space-collapse: preserve; color: rgb(204, 204, 204);&quot;&gt;&lt;font color=&quot;#9cdcfe&quot;&gt;*id_creative &lt;/font&gt;&lt;span style=&quot;color: rgb(156, 220, 254);&quot;&gt;(id_user)&lt;/span&gt;&lt;span style=&quot;color: rgb(156, 220, 254);&quot;&gt; &lt;/span&gt;&lt;/div&gt;&lt;div style=&quot;background-color: rgb(31, 31, 31); font-family: &amp;quot;Droid Sans Mono&amp;quot;, &amp;quot;monospace&amp;quot;, monospace; font-size: 14px; line-height: 19px; white-space-collapse: preserve; color: rgb(204, 204, 204);&quot;&gt;&lt;span style=&quot;color: rgb(156, 220, 254);&quot;&gt;*id_buyer &lt;/span&gt;&lt;span style=&quot;color: rgb(156, 220, 254);&quot;&gt;(id_user)&lt;/span&gt;&lt;br&gt;&lt;/div&gt;&lt;div style=&quot;background-color: rgb(31, 31, 31); font-family: &amp;quot;Droid Sans Mono&amp;quot;, &amp;quot;monospace&amp;quot;, monospace; font-size: 14px; line-height: 19px; white-space-collapse: preserve; color: rgb(204, 204, 204);&quot;&gt;&lt;span style=&quot;color: rgb(156, 220, 254);&quot;&gt;blackList_creative&lt;br&gt;&lt;/span&gt;&lt;/div&gt;&lt;div style=&quot;background-color: rgb(31, 31, 31); font-family: &amp;quot;Droid Sans Mono&amp;quot;, &amp;quot;monospace&amp;quot;, monospace; font-size: 14px; line-height: 19px; white-space-collapse: preserve; color: rgb(204, 204, 204);&quot;&gt;&lt;span style=&quot;color: rgb(156, 220, 254);&quot;&gt;blackList_buyer&lt;br&gt;&lt;/span&gt;&lt;/div&gt;&lt;div style=&quot;background-color: rgb(31, 31, 31); font-family: &amp;quot;Droid Sans Mono&amp;quot;, &amp;quot;monospace&amp;quot;, monospace; font-size: 14px; line-height: 19px; white-space-collapse: preserve; color: rgb(204, 204, 204);&quot;&gt;&lt;span style=&quot;color: rgb(156, 220, 254);&quot;&gt;favoriteList_creative&lt;br&gt;&lt;/span&gt;&lt;/div&gt;&lt;div style=&quot;background-color: rgb(31, 31, 31); font-family: &amp;quot;Droid Sans Mono&amp;quot;, &amp;quot;monospace&amp;quot;, monospace; font-size: 14px; line-height: 19px; white-space-collapse: preserve; color: rgb(204, 204, 204);&quot;&gt;&lt;span style=&quot;color: rgb(156, 220, 254);&quot;&gt;favoriteList_buyer&lt;/span&gt;&lt;/div&gt;" style="align=left;strokeColor=none;fillColor=none;spacingLeft=4;fontSize=12;verticalAlign=top;resizable=0;rotatable=0;part=1;html=1;" parent="6" vertex="1">
                    <mxGeometry y="50" width="230" height="150" as="geometry"/>
                </mxCell>
                <mxCell id="8" value="&lt;div style=&quot;color: rgb(204, 204, 204); background-color: rgb(31, 31, 31); font-family: &amp;quot;Droid Sans Mono&amp;quot;, &amp;quot;monospace&amp;quot;, monospace; line-height: 19px; white-space: pre;&quot;&gt;&lt;span style=&quot;color: #4ec9b0;&quot;&gt;Catalog&lt;/span&gt;&lt;/div&gt;" style="swimlane;childLayout=stackLayout;horizontal=1;startSize=50;horizontalStack=0;rounded=1;fontSize=14;fontStyle=0;strokeWidth=2;resizeParent=0;resizeLast=1;shadow=0;dashed=0;align=center;arcSize=4;whiteSpace=wrap;html=1;" parent="1" vertex="1">
                    <mxGeometry x="220" y="300" width="240" height="140" as="geometry"/>
                </mxCell>
                <mxCell id="9" value="&lt;div style=&quot;color: rgb(204, 204, 204); background-color: rgb(31, 31, 31); font-family: &amp;quot;Droid Sans Mono&amp;quot;, &amp;quot;monospace&amp;quot;, monospace; font-size: 14px; line-height: 19px; white-space-collapse: preserve;&quot;&gt;&lt;span style=&quot;color: #9cdcfe;&quot;&gt;*id&lt;/span&gt;&lt;/div&gt;&lt;div style=&quot;color: rgb(204, 204, 204); background-color: rgb(31, 31, 31); font-family: &amp;quot;Droid Sans Mono&amp;quot;, &amp;quot;monospace&amp;quot;, monospace; font-size: 14px; line-height: 19px; white-space-collapse: preserve;&quot;&gt;&lt;span style=&quot;color: #9cdcfe;&quot;&gt;*id_user&lt;/span&gt;&lt;/div&gt;&lt;div style=&quot;color: rgb(204, 204, 204); background-color: rgb(31, 31, 31); font-family: &amp;quot;Droid Sans Mono&amp;quot;, &amp;quot;monospace&amp;quot;, monospace; font-size: 14px; line-height: 19px; white-space-collapse: preserve;&quot;&gt;&lt;span style=&quot;color: #9cdcfe;&quot;&gt;catalogName&lt;/span&gt;&lt;/div&gt;" style="align=left;strokeColor=none;fillColor=none;spacingLeft=4;fontSize=12;verticalAlign=top;resizable=0;rotatable=0;part=1;html=1;" parent="8" vertex="1">
                    <mxGeometry y="50" width="240" height="90" as="geometry"/>
                </mxCell>
                <mxCell id="13" value="" style="endArrow=ERone;html=1;rounded=0;exitX=-0.004;exitY=0.3;exitDx=0;exitDy=0;endFill=0;startArrow=ERzeroToMany;startFill=0;entryX=1;entryY=0.5;entryDx=0;entryDy=0;exitPerimeter=0;" parent="1" source="8" target="5" edge="1">
                    <mxGeometry relative="1" as="geometry">
                        <mxPoint x="230" y="300" as="sourcePoint"/>
                        <mxPoint x="360" y="335" as="targetPoint"/>
                    </mxGeometry>
                </mxCell>
                <mxCell id="15" value="" style="endArrow=ERoneToMany;html=1;rounded=0;endFill=0;startArrow=ERone;startFill=0;exitX=-0.009;exitY=0.207;exitDx=0;exitDy=0;entryX=1;entryY=0.356;entryDx=0;entryDy=0;entryPerimeter=0;exitPerimeter=0;" parent="1" edge="1" target="3" source="7">
                    <mxGeometry relative="1" as="geometry">
                        <mxPoint x="240" y="50" as="sourcePoint"/>
                        <mxPoint x="130" y="50" as="targetPoint"/>
                    </mxGeometry>
                </mxCell>
                <mxCell id="29" value="&lt;font face=&quot;Droid Sans Mono, monospace, monospace&quot; color=&quot;#4ec9b0&quot;&gt;&lt;span style=&quot;white-space: pre; background-color: rgb(31, 31, 31);&quot;&gt;Chats&lt;/span&gt;&lt;/font&gt;" style="swimlane;childLayout=stackLayout;horizontal=1;startSize=50;horizontalStack=0;rounded=1;fontSize=14;fontStyle=0;strokeWidth=2;resizeParent=0;resizeLast=1;shadow=0;dashed=0;align=center;arcSize=4;whiteSpace=wrap;html=1;" parent="1" vertex="1">
                    <mxGeometry x="480" y="180" width="200" height="120" as="geometry"/>
                </mxCell>
                <mxCell id="30" value="&lt;div style=&quot;color: rgb(204, 204, 204); white-space-collapse: preserve; background-color: rgb(31, 31, 31); font-family: &amp;quot;Droid Sans Mono&amp;quot;, &amp;quot;monospace&amp;quot;, monospace; font-size: 14px; line-height: 19px;&quot;&gt;&lt;span style=&quot;color: rgb(156, 220, 254);&quot;&gt;*id&lt;/span&gt;&lt;/div&gt;&lt;div style=&quot;color: rgb(204, 204, 204); white-space-collapse: preserve; background-color: rgb(31, 31, 31); font-family: &amp;quot;Droid Sans Mono&amp;quot;, &amp;quot;monospace&amp;quot;, monospace; font-size: 14px; line-height: 19px;&quot;&gt;&lt;span style=&quot;color: rgb(156, 220, 254);&quot;&gt;*id_catalog&lt;/span&gt;&lt;/div&gt;&lt;div style=&quot;color: rgb(204, 204, 204); white-space-collapse: preserve; background-color: rgb(31, 31, 31); font-family: &amp;quot;Droid Sans Mono&amp;quot;, &amp;quot;monospace&amp;quot;, monospace; font-size: 14px; line-height: 19px;&quot;&gt;&lt;span style=&quot;color: rgb(156, 220, 254);&quot;&gt;*id_conversation&lt;/span&gt;&lt;br&gt;&lt;/div&gt;" style="align=left;strokeColor=none;fillColor=none;spacingLeft=4;fontSize=12;verticalAlign=top;resizable=0;rotatable=0;part=1;html=1;" parent="29" vertex="1">
                    <mxGeometry y="50" width="200" height="70" as="geometry"/>
                </mxCell>
                <mxCell id="33" value="in" style="shape=rhombus;perimeter=rhombusPerimeter;whiteSpace=wrap;html=1;align=center;" parent="1" vertex="1">
                    <mxGeometry x="280" y="190" width="120" height="60" as="geometry"/>
                </mxCell>
                <mxCell id="35" value="" style="endArrow=none;html=1;rounded=0;exitX=1;exitY=0.5;exitDx=0;exitDy=0;entryX=-0.009;entryY=0.35;entryDx=0;entryDy=0;entryPerimeter=0;" parent="1" source="33" target="29" edge="1">
                    <mxGeometry relative="1" as="geometry">
                        <mxPoint x="120" y="200" as="sourcePoint"/>
                        <mxPoint x="280" y="200" as="targetPoint"/>
                    </mxGeometry>
                </mxCell>
                <mxCell id="37" value="" style="endArrow=ERzeroToMany;html=1;rounded=0;entryX=0.478;entryY=1;entryDx=0;entryDy=0;exitX=0.5;exitY=0;exitDx=0;exitDy=0;endFill=0;entryPerimeter=0;" parent="1" source="33" target="7" edge="1">
                    <mxGeometry relative="1" as="geometry">
                        <mxPoint x="390" y="270" as="sourcePoint"/>
                        <mxPoint x="550" y="270" as="targetPoint"/>
                    </mxGeometry>
                </mxCell>
                <mxCell id="38" value="" style="endArrow=ERoneToMany;html=1;rounded=0;exitX=0.5;exitY=1;exitDx=0;exitDy=0;entryX=0.5;entryY=0;entryDx=0;entryDy=0;endFill=0;" parent="1" source="33" target="8" edge="1">
                    <mxGeometry relative="1" as="geometry">
                        <mxPoint x="390" y="270" as="sourcePoint"/>
                        <mxPoint x="300" y="390" as="targetPoint"/>
                    </mxGeometry>
                </mxCell>
                <mxCell id="41" value="" style="endArrow=ERoneToMany;html=1;rounded=0;exitX=0.463;exitY=-0.015;exitDx=0;exitDy=0;endFill=0;startArrow=ERone;startFill=0;exitPerimeter=0;entryX=0.456;entryY=1;entryDx=0;entryDy=0;entryPerimeter=0;" parent="1" source="4" target="3" edge="1">
                    <mxGeometry relative="1" as="geometry">
                        <mxPoint x="220" y="200" as="sourcePoint"/>
                        <mxPoint x="46" y="140" as="targetPoint"/>
                    </mxGeometry>
                </mxCell>
                <mxCell id="47" value="" style="endArrow=ERzeroToMany;html=1;rounded=0;exitX=0.981;exitY=0.137;exitDx=0;exitDy=0;exitPerimeter=0;entryX=0;entryY=0.75;entryDx=0;entryDy=0;endFill=0;startArrow=ERone;startFill=0;" edge="1" parent="1" source="4" target="6">
                    <mxGeometry relative="1" as="geometry">
                        <mxPoint x="200" y="180" as="sourcePoint"/>
                        <mxPoint x="360" y="180" as="targetPoint"/>
                    </mxGeometry>
                </mxCell>
            </root>
        </mxGraphModel>
    </diagram>
</mxfile>